# xmcd
#
# Track frame offsets: 
#        150
#        17305
#        34705
#        56155
#        76405
#        87055
#        102355
#        122790
#        143790
#        154893
#        173557
#        187946
#        200431
#        213621
#        220530
#        229080
#        245273
#        263837
#        277738
#        294538
#        316395
#        330507
#
# Disc length: 4796 seconds
#
# Revision: 0
# Processed by: cddbd v1.5.2PL0 Copyright (c) Steve Scherf et al.
# Submitted via: ExactAudioCopy v0.99pb5
#
DISCID=2a12ba16
DTITLE=Knowmads - Seattle
DYEAR=2009
DGENRE=Hip-Hop
TTITLE0=The Boat Can Leave Now
TTITLE1=Wild Flower
TTITLE2=Flip Cup
TTITLE3=Weed
TTITLE4=Pick mE a PartE! [Pete The Genius Remix]
TTITLE5=Girl
TTITLE6=MolliE!
TTITLE7=The Roof Top [HaleyHey! ReMix]
TTITLE8=Queen
TTITLE9=LooseHugs
TTITLE10=Ego/The Road Less Travelled
TTITLE11=One
TTITLE12=RainFall
TTITLE13=Anti-Love
TTITLE14=Noah's Ark
TTITLE15=Dream?
TTITLE16=The Gentlemen's Club
TTITLE17=CrankiTuP! (Try Not To Look Stupid)
TTITLE18=PayBack
TTITLE19=ComeBack
TTITLE20=BlackBEAR! (On The HighWay)
TTITLE21=SEATTLE/Return Of The Jedi
EXTD=
EXTT0=
EXTT1=
EXTT2=
EXTT3=
EXTT4=
EXTT5=
EXTT6=
EXTT7=
EXTT8=
EXTT9=
EXTT10=
EXTT11=
EXTT12=
EXTT13=
EXTT14=
EXTT15=
EXTT16=
EXTT17=
EXTT18=
EXTT19=
EXTT20=
EXTT21=
PLAYORDER=
